<svg xmlns="http://www.w3.org/2000/svg" viewBox="0 0 100 100"><circle cx="50" cy="50" r="50" fill="#9ED8FF"/><ellipse cx="50" cy="96" rx="34" ry="10" fill="#fff" opacity=".35"/><g stroke="#1E2A5A" stroke-width="3.5" stroke-linecap="round" stroke-linejoin="round"><path d="M20 22 46 36 24 58Z" fill="#B7B7C9"/><path d="M80 22 54 36 76 58Z" fill="#B7B7C9"/><path d="M25 31 38 38 28 48Z" fill="#FFB3C7" stroke="none"/><path d="M75 31 62 38 72 48Z" fill="#FFB3C7" stroke="none"/><ellipse cx="50" cy="62" rx="31" ry="25" fill="#B7B7C9"/><path d="M50 40v8M42 41l2 7M58 41l-2 7" fill="none"/><g fill="#1E2A5A" stroke="none"><circle cx="39" cy="54" r="4"/><circle cx="61" cy="54" r="4"/><circle cx="40.2" cy="52.6" r="1.3" fill="#fff"/><circle cx="62.2" cy="52.6" r="1.3" fill="#fff"/></g><path d="M46 63h8l-4 5Z" fill="#FF8FAE"/><path d="M50 68q-2 5-7 4M50 68q2 5 7 4" fill="none"/><path d="M30 64 14 61M30 69 15 72M70 64 86 61M70 69 85 72" fill="none" stroke-width="2.6"/></g></svg>
