<svg xmlns="http://www.w3.org/2000/svg" viewBox="0 0 100 100"><circle cx="50" cy="50" r="50" fill="#9ED8FF"/><ellipse cx="50" cy="96" rx="34" ry="10" fill="#fff" opacity=".35"/><g stroke="#1E2A5A" stroke-width="3.5" stroke-linecap="round" stroke-linejoin="round"><ellipse cx="24" cy="50" rx="10" ry="20" fill="#7A4B2A" transform="rotate(12 24 50)"/><ellipse cx="76" cy="50" rx="10" ry="20" fill="#7A4B2A" transform="rotate(-12 76 50)"/><ellipse cx="50" cy="58" rx="27" ry="28" fill="#D9A56B"/><ellipse cx="50" cy="70" rx="15" ry="12" fill="#F6E3C4"/><path d="M36 33q14-6 28 0-2 8-14 8t-14-8Z" fill="#7A4B2A" stroke="none"/><g fill="#1E2A5A" stroke="none"><circle cx="39" cy="54" r="4"/><circle cx="61" cy="54" r="4"/><circle cx="40.2" cy="52.6" r="1.3" fill="#fff"/><circle cx="62.2" cy="52.6" r="1.3" fill="#fff"/></g><ellipse cx="50" cy="65" rx="7" ry="5" fill="#1E2A5A"/><path d="M50 70v4M43 76q7 5 14 0" fill="none"/></g></svg>
