<svg xmlns="http://www.w3.org/2000/svg" viewBox="0 0 100 100"><circle cx="50" cy="50" r="50" fill="#9ED8FF"/><ellipse cx="50" cy="96" rx="34" ry="10" fill="#fff" opacity=".35"/><g stroke="#1E2A5A" stroke-width="3.5" stroke-linecap="round" stroke-linejoin="round"><path d="M18 18 44 36 24 58Z" fill="#F28C38"/><path d="M82 18 56 36 76 58Z" fill="#F28C38"/><path d="M23 26 38 37 27 49Z" fill="#3B2A4A" stroke="none"/><path d="M77 26 62 37 73 49Z" fill="#3B2A4A" stroke="none"/><path d="M50 86C30 86 16 68 20 50 30 40 70 40 80 50 84 68 70 86 50 86Z" fill="#F28C38"/><path d="M50 86C38 86 28 75 28 64 38 58 62 58 72 64 72 75 62 86 50 86Z" fill="#fff"/><g fill="#1E2A5A" stroke="none"><circle cx="39" cy="54" r="4"/><circle cx="61" cy="54" r="4"/><circle cx="40.2" cy="52.6" r="1.3" fill="#fff"/><circle cx="62.2" cy="52.6" r="1.3" fill="#fff"/></g><ellipse cx="50" cy="73" rx="5" ry="3.6" fill="#1E2A5A"/></g></svg>
